#N canvas 21 86 1280 751 10;
#X obj 10 23 float;
#X obj 550 485 osc~;
#X obj 10 46 osc~;
#X text 1053 207 Fundamental freq;
#X obj 206 26 float;
#X obj 206 49 osc~;
#X obj 393 20 float;
#X obj 393 43 osc~;
#X obj 624 20 float;
#X obj 624 43 osc~;
#X obj 836 4 float;
#X obj 836 27 osc~;
#X obj 1053 306 line~;
#X msg 1053 285 \$1 100;
#X obj 1053 263 float;
#X obj 1056 4 float;
#X obj 1056 27 osc~;
#X obj 10 -2 r mod_osc_01_freq;
#X obj 206 1 r mod_osc_02_freq;
#X obj 393 -5 r mod_osc_03_freq;
#X obj 836 -21 r mod_osc_05_freq;
#X obj 1056 -21 r mod_osc_06_freq;
#X obj 624 -5 r mod_osc_04_freq;
#X obj 536 438 *~;
#X obj 531 554 dac~;
#X obj 1053 226 r main_osc_freq;
#X obj 13 159 *~;
#X obj 209 166 *~;
#X obj 396 159 *~;
#X obj 627 159 *~;
#X obj 839 140 *~;
#X obj 1059 140 *~;
#X obj 1101 83 *;
#X obj 1148 78 r mod_osc_06_amt;
#X obj 1078 47 r mod_osc_06_on;
#X obj 878 81 *;
#X obj 654 96 *;
#X obj 425 107 *;
#X obj 224 110 *;
#X obj 49 112 *;
#X obj 31 66 r mod_osc_01_on;
#X obj 99 100 r mod_osc_01_amt;
#X obj 227 69 r mod_osc_02_on;
#X obj 255 91 r mod_osc_02_amt;
#X obj 413 63 r mod_osc_03_on;
#X obj 472 102 r mod_osc_03_amt;
#X obj 645 63 r mod_osc_04_on;
#X obj 701 91 r mod_osc_04_amt;
#X obj 857 47 r mod_osc_05_on;
#X obj 925 76 r mod_osc_05_amt;
#X connect 0 0 2 0;
#X connect 1 0 24 1;
#X connect 1 0 24 0;
#X connect 2 0 26 0;
#X connect 4 0 5 0;
#X connect 5 0 27 0;
#X connect 6 0 7 0;
#X connect 7 0 28 0;
#X connect 8 0 9 0;
#X connect 9 0 29 0;
#X connect 10 0 11 0;
#X connect 11 0 30 0;
#X connect 12 0 23 1;
#X connect 13 0 12 0;
#X connect 14 0 13 0;
#X connect 15 0 16 0;
#X connect 16 0 31 0;
#X connect 17 0 0 0;
#X connect 18 0 4 0;
#X connect 19 0 6 0;
#X connect 20 0 10 0;
#X connect 21 0 15 0;
#X connect 22 0 8 0;
#X connect 23 0 1 0;
#X connect 25 0 14 0;
#X connect 26 0 23 0;
#X connect 27 0 23 0;
#X connect 28 0 23 0;
#X connect 29 0 23 0;
#X connect 30 0 23 0;
#X connect 31 0 23 0;
#X connect 32 0 31 1;
#X connect 33 0 32 1;
#X connect 34 0 32 0;
#X connect 35 0 30 1;
#X connect 36 0 29 1;
#X connect 37 0 28 1;
#X connect 38 0 27 1;
#X connect 39 0 26 1;
#X connect 40 0 39 0;
#X connect 41 0 39 1;
#X connect 42 0 38 0;
#X connect 43 0 38 1;
#X connect 44 0 37 0;
#X connect 45 0 37 1;
#X connect 46 0 36 0;
#X connect 47 0 36 1;
#X connect 48 0 35 0;
#X connect 49 0 35 1;
