#N canvas 1 156 1239 580 10;
#X obj 453 449 dac~;
#X obj 20 -10 r \$0-mainFreq;
#X obj 394 12 r \$0-fm_freq_01;
#X obj 453 382 *~;
#X obj 394 37 float;
#X obj 452 413 osc~;
#X obj 394 60 osc~;
#X obj 394 102 *~ 1;
#X text 494 9 Modulation Freq;
#X text 501 79 modulation amount;
#X text 20 -29 Fundamental freq;
#X obj 635 33 float;
#X obj 635 56 osc~;
#X obj 635 98 *~ 1;
#X text 735 5 Modulation Freq;
#X text 742 75 modulation amount;
#X obj 635 8 r \$0-fm_freq_02;
#X obj 656 76 r \$0-fm_amt_2;
#X obj 12 175 float;
#X obj 12 198 osc~;
#X obj 12 240 *~ 1;
#X text 112 147 Modulation Freq;
#X text 119 217 modulation amount;
#X obj 245 170 float;
#X obj 245 193 osc~;
#X obj 245 235 *~ 1;
#X text 345 142 Modulation Freq;
#X text 352 212 modulation amount;
#X obj 617 170 float;
#X obj 617 193 osc~;
#X obj 617 235 *~ 1;
#X text 717 142 Modulation Freq;
#X text 724 212 modulation amount;
#X obj 12 150 r \$0-fm_freq_03;
#X obj 33 218 r \$0-fm_amt_3;
#X obj 245 145 r \$0-fm_freq_04;
#X obj 266 213 r \$0-fm_amt_4;
#X obj 617 145 r \$0-fm_freq_05;
#X obj 638 213 r \$0-fm_amt_5;
#X obj 20 70 line~;
#X msg 20 49 \$1 100;
#X obj 20 27 float;
#X floatatom 980 323 5 0 0 0 #0-fm_freq_01 - #0-fm_freq_01;
#X floatatom 980 343 5 0 0 0 #0-fm_freq_02 - #0-fm_freq_02;
#X floatatom 980 363 5 0 0 0 #0-fm_freq_03 - #0-fm_freq_03;
#X floatatom 980 383 5 0 0 0 #0-fm_freq_04 - #0-fm_freq_04;
#X floatatom 980 403 5 0 0 0 #0-fm_freq_05 - #0-fm_freq_05;
#X floatatom 1122 333 5 0 0 0 #0-fm_amt_1 - #0-fm_amt_1;
#X floatatom 1122 354 5 0 0 0 #0-fm_amt_2 - #0-fm_amt_2;
#X floatatom 1122 375 5 0 0 0 #0-fm_amt_3 - #0-fm_amt_3;
#X floatatom 1122 393 5 0 0 0 #0-fm_amt_4 - #0-fm_amt_4;
#X floatatom 1122 413 5 0 0 0 #0-fm_amt_5 - #0-fm_amt_5;
#X floatatom 980 303 5 0 0 0 #0-mainFreq - #0-mainFreq;
#X obj 20 92 send~ mainOsc;
#X obj 641 363 receive~ mainOsc;
#X obj 415 80 r \$0-fm_amt_1;
#X obj 837 170 float;
#X obj 837 193 osc~;
#X obj 837 235 *~ 1;
#X text 937 142 Modulation Freq;
#X text 944 212 modulation amount;
#X obj 837 145 r \$0-fm_freq_06;
#X obj 858 213 r \$0-fm_amt_6;
#X floatatom 980 422 5 0 0 0 #0-fm_freq_06 - #0-fm_freq_06;
#X floatatom 1122 432 5 0 0 0 #0-fm_amt_6 - #0-fm_amt_6;
#X connect 1 0 41 0;
#X connect 2 0 4 0;
#X connect 3 0 5 0;
#X connect 4 0 6 0;
#X connect 5 0 0 0;
#X connect 5 0 0 1;
#X connect 6 0 7 0;
#X connect 7 0 3 0;
#X connect 11 0 12 0;
#X connect 12 0 13 0;
#X connect 13 0 3 0;
#X connect 16 0 11 0;
#X connect 17 0 13 1;
#X connect 18 0 19 0;
#X connect 19 0 20 0;
#X connect 20 0 3 0;
#X connect 23 0 24 0;
#X connect 24 0 25 0;
#X connect 25 0 3 0;
#X connect 28 0 29 0;
#X connect 29 0 30 0;
#X connect 30 0 3 0;
#X connect 33 0 18 0;
#X connect 34 0 20 1;
#X connect 35 0 23 0;
#X connect 36 0 25 1;
#X connect 37 0 28 0;
#X connect 38 0 30 1;
#X connect 39 0 53 0;
#X connect 40 0 39 0;
#X connect 41 0 40 0;
#X connect 54 0 3 1;
#X connect 55 0 7 1;
#X connect 56 0 57 0;
#X connect 57 0 58 0;
#X connect 58 0 3 0;
#X connect 61 0 56 0;
#X connect 62 0 58 1;
