#N canvas 50 22 983 629 10;
#X obj 399 519 dac~;
#X obj 453 382 *~;
#X obj 394 37 float;
#X obj 398 483 osc~;
#X obj 394 60 osc~;
#X obj 394 102 *~ 1;
#X text 713 360 Fundamental freq;
#X obj 635 33 float;
#X obj 635 56 osc~;
#X obj 635 98 *~ 1;
#X obj 24 180 float;
#X obj 24 203 osc~;
#X obj 24 245 *~ 1;
#X obj 245 170 float;
#X obj 245 193 osc~;
#X obj 245 235 *~ 1;
#X obj 617 170 float;
#X obj 617 193 osc~;
#X obj 617 235 *~ 1;
#X obj 713 459 line~;
#X msg 713 438 \$1 100;
#X obj 713 416 float;
#X obj 837 170 float;
#X obj 837 193 osc~;
#X obj 837 235 *~ 1;
#X obj 713 379 r main_osc_freq;
#X obj 394 12 r mod_osc_01_freq;
#X obj 635 8 r mod_osc_02_freq;
#X obj 415 80 r mod_osc_01_amt;
#X obj 656 76 r mod_osc_02_amt;
#X obj 24 155 r mod_osc_03_freq;
#X obj 617 145 r mod_osc_05_freq;
#X obj 837 145 r mod_osc_06_freq;
#X obj 245 145 r mod_osc_04_freq;
#X obj 45 223 r r mod_osc_03_amt;
#X obj 266 213 r mod_osc_04_amt;
#X obj 638 213 r mod_osc_05_amt;
#X obj 858 213 r mod_osc_06_amt;
#X obj 398 455 *~;
#X obj 476 407 r on_off;
#X connect 1 0 38 0;
#X connect 2 0 4 0;
#X connect 3 0 0 0;
#X connect 3 0 0 1;
#X connect 4 0 5 0;
#X connect 5 0 1 0;
#X connect 7 0 8 0;
#X connect 8 0 9 0;
#X connect 9 0 1 0;
#X connect 10 0 11 0;
#X connect 11 0 12 0;
#X connect 12 0 1 0;
#X connect 13 0 14 0;
#X connect 14 0 15 0;
#X connect 15 0 1 0;
#X connect 16 0 17 0;
#X connect 17 0 18 0;
#X connect 18 0 1 0;
#X connect 19 0 1 1;
#X connect 20 0 19 0;
#X connect 21 0 20 0;
#X connect 22 0 23 0;
#X connect 23 0 24 0;
#X connect 24 0 1 0;
#X connect 25 0 21 0;
#X connect 26 0 2 0;
#X connect 27 0 7 0;
#X connect 28 0 5 1;
#X connect 29 0 9 1;
#X connect 30 0 10 0;
#X connect 31 0 16 0;
#X connect 32 0 22 0;
#X connect 33 0 13 0;
#X connect 34 0 12 1;
#X connect 35 0 15 1;
#X connect 36 0 18 1;
#X connect 37 0 24 1;
#X connect 38 0 3 0;
#X connect 39 0 38 1;
