#N canvas 1 156 1239 580 10;
#X obj 453 449 dac~;
#X obj 482 261 r \$0-mainFreq;
#X obj 29 80 r \$0-fm_amt_1;
#X obj 8 12 r \$0-fm_freq_01;
#X obj 453 382 *~;
#X obj 8 37 float;
#X obj 452 413 osc~;
#X obj 8 60 osc~;
#X obj 8 102 *~ 1;
#X text 108 9 Modulation Freq;
#X text 115 79 modulation amount;
#X text 480 242 Fundamental freq;
#X obj 237 38 float;
#X obj 237 61 osc~;
#X obj 237 103 *~ 1;
#X text 337 10 Modulation Freq;
#X text 344 80 modulation amount;
#X obj 237 13 r \$0-fm_freq_02;
#X obj 258 81 r \$0-fm_amt_2;
#X obj 467 166 +~;
#X obj 467 35 float;
#X obj 467 58 osc~;
#X obj 467 100 *~ 1;
#X text 567 7 Modulation Freq;
#X text 574 77 modulation amount;
#X obj 700 30 float;
#X obj 700 53 osc~;
#X obj 700 95 *~ 1;
#X text 800 2 Modulation Freq;
#X text 807 72 modulation amount;
#X obj 951 25 float;
#X obj 951 48 osc~;
#X obj 951 90 *~ 1;
#X text 1051 -3 Modulation Freq;
#X text 1058 67 modulation amount;
#X obj 467 10 r \$0-fm_freq_03;
#X obj 488 78 r \$0-fm_amt_3;
#X obj 700 5 r \$0-fm_freq_04;
#X obj 721 73 r \$0-fm_amt_4;
#X obj 951 0 r \$0-fm_freq_05;
#X obj 972 68 r \$0-fm_amt_5;
#X obj 482 366 line~;
#X floatatom 587 327 5 0 0 0 - - -;
#X obj 587 222 tgl 15 0 empty empty empty 17 7 0 10 -262144 -1 -1 0
1;
#X obj 587 279 timer;
#X obj 587 301 expr pow(2 \, ($i1 % 10));
#X msg 482 343 \$1 100;
#X floatatom 314 252 5 0 0 0 - - -;
#X floatatom 406 252 5 0 0 0 - - -;
#X obj 223 251 tgl 15 0 empty empty empty 17 7 0 10 -262144 -1 -1 1
1;
#X floatatom 406 394 5 0 0 0 - - -;
#X floatatom 223 391 5 0 0 0 - - -;
#X obj 974 148 expr~ $v1 \; $v2 * $v3 \; if ($v1 == 0 \, $v2+$v3 \,
0) \; if ($i1 == 1 \, $v2*$v3 \, 0) \;;
#X obj 223 299 expr if ($i1 == 0 \, $f2+$f3 \, 0) \; if ($i1 == 1 \,
$f2*$f3 \, 0) \;;
#X obj 231 268 t b;
#X obj 614 237 metro 100;
#X obj 550 419 tgl 15 0 empty empty empty 17 7 0 10 -262144 -1 -1 1
1;
#X obj 515 305 float;
#X text 202 491;
#X connect 1 0 57 0;
#X connect 2 0 8 1;
#X connect 3 0 5 0;
#X connect 4 0 6 0;
#X connect 5 0 7 0;
#X connect 6 0 0 0;
#X connect 6 0 0 1;
#X connect 7 0 8 0;
#X connect 8 0 19 0;
#X connect 12 0 13 0;
#X connect 13 0 14 0;
#X connect 14 0 19 1;
#X connect 17 0 12 0;
#X connect 18 0 14 1;
#X connect 19 0 4 0;
#X connect 20 0 21 0;
#X connect 21 0 22 0;
#X connect 22 0 19 0;
#X connect 25 0 26 0;
#X connect 26 0 27 0;
#X connect 27 0 19 1;
#X connect 30 0 31 0;
#X connect 31 0 32 0;
#X connect 32 0 19 0;
#X connect 35 0 20 0;
#X connect 36 0 22 1;
#X connect 37 0 25 0;
#X connect 38 0 27 1;
#X connect 39 0 30 0;
#X connect 40 0 32 1;
#X connect 41 0 4 1;
#X connect 43 0 44 0;
#X connect 43 0 55 0;
#X connect 44 0 45 0;
#X connect 45 0 42 0;
#X connect 46 0 41 0;
#X connect 47 0 53 1;
#X connect 47 0 54 0;
#X connect 48 0 53 2;
#X connect 48 0 54 0;
#X connect 49 0 53 0;
#X connect 49 0 54 0;
#X connect 53 0 51 0;
#X connect 53 1 50 0;
#X connect 54 0 53 0;
#X connect 55 0 44 1;
#X connect 56 0 0 0;
#X connect 57 0 46 0;
